<svg width="790" height="100" viewBox="0 0 790 100" fill="none" xmlns="http://www.w3.org/2000/svg">
<path fill-rule="evenodd" clip-rule="evenodd" d="M700.232 3.71997H621V17.928H652.36H668.872H700.232V3.71997Z" fill="#252525"/>
<path fill-rule="evenodd" clip-rule="evenodd" d="M482 85.072V99.28H531.715V85.072H482ZM482 42.192V56.4H529.667V42.192H482ZM482 2V16.208H530.563V2H482Z" fill="#252525"/>
<path d="M433.596 99.28L459.179 2H442.556L417.98 97.488L393.276 2H360.636V99.28H377.148V3.92L402.236 99.28H433.596Z" fill="#252525"/>
<path d="M341.054 45.184H291.646V58.816H327L327 75.316L327.102 98.816H341.054V45.184Z" fill="#252525"/>
<path d="M339.646 31.872C334.27 11.776 318.654 0 295.486 0C270.268 0 251.821 16.7671 248.912 42.816H266.134C268.495 25.026 279.543 13.44 295.486 13.44C309.694 13.44 318.398 20.864 322.366 31.872H339.646Z" fill="#252525"/>
<path fill-rule="evenodd" clip-rule="evenodd" d="M80 2V61.28H80.023V99.28H63.511V2H80Z" fill="#252525"/>
<path fill-rule="evenodd" clip-rule="evenodd" d="M100.64 61.28L122.903 99.28H141.975L119.079 61.28H100.64Z" fill="#252525"/>
<path fill-rule="evenodd" clip-rule="evenodd" d="M0 43.728V57.808H46.112V43.728H0ZM0 2V16.208H46.88V2H0Z" fill="#252525"/>
<path fill-rule="evenodd" clip-rule="evenodd" d="M227.002 99.28H244.322L210.658 2H179.042L145.378 99.28H162.554L179.089 50.28L179.228 50.327L194.914 4.04797L212.429 56.0917L227.002 99.28Z" fill="#252525"/>
<path fill-rule="evenodd" clip-rule="evenodd" d="M772.624 99.28H789.944L756.28 2H724.664L691 99.28H708.176L724.711 50.28L724.85 50.327L740.536 4.04797L758.051 56.0917L772.624 99.28Z" fill="#252525"/>
<path d="M606.5 99.28H589L550 2H567.5L606.5 99.28Z" fill="#252525"/>
</svg>
